<svg width="66" height="57" viewBox="0 0 66 57" fill="none" xmlns="http://www.w3.org/2000/svg">
<g filter="url(#filter0_d_1252_219)">
<rect y="0.5" width="58" height="56" rx="16" fill="#0077FF"/>
<path d="M46.9998 31.2481C47.0329 36.3942 42.7455 40.6033 37.5441 40.6033H36.261L37.0782 42.8249C37.1979 43.1524 36.9535 43.5 36.5996 43.5H32.2638C32.05 43.5 31.859 43.3665 31.7852 43.1675L30.8406 40.6033L29.2367 36.2406C29.117 35.9131 29.3615 35.5655 29.7153 35.5655H37.5671C39.9526 35.5655 41.9257 33.636 41.9079 31.2758C41.9003 30.1121 41.4191 29.0617 40.6477 28.2985C39.8686 27.5277 38.7942 27.0516 37.6052 27.0516H31.5459V27.0793L33.1396 31.4118C33.2593 31.7393 33.0149 32.0869 32.661 32.0869H20.4557C15.2721 32.0894 10.9848 27.8929 11 22.7645C11.0077 20.2103 12.0592 17.898 13.7522 16.2229C15.4529 14.5403 17.8003 13.5 20.3946 13.5H29.3284C29.5422 13.5 29.7332 13.6335 29.807 13.8325L31.2887 17.8627C31.4084 18.1902 31.164 18.5378 30.8101 18.5378H20.4353C18.0523 18.5378 16.0919 20.437 16.0919 22.7922C16.0919 25.1448 18.0167 27.0516 20.3946 27.0516H26.4412L24.8373 22.6889C24.7176 22.3615 24.962 22.0139 25.3159 22.0139H37.6052C42.7735 22.0139 46.9667 26.1423 46.9998 31.2481Z" fill="white"/>
</g>
<defs>
<filter id="filter0_d_1252_219" x="-8" y="-7.5" width="74" height="72" filterUnits="userSpaceOnUse" color-interpolation-filters="sRGB">
<feFlood flood-opacity="0" result="BackgroundImageFix"/>
<feColorMatrix in="SourceAlpha" type="matrix" values="0 0 0 0 0 0 0 0 0 0 0 0 0 0 0 0 0 0 127 0" result="hardAlpha"/>
<feOffset/>
<feGaussianBlur stdDeviation="4"/>
<feComposite in2="hardAlpha" operator="out"/>
<feColorMatrix type="matrix" values="0 0 0 0 0 0 0 0 0 0.466667 0 0 0 0 1 0 0 0 0.25 0"/>
<feBlend mode="normal" in2="BackgroundImageFix" result="effect1_dropShadow_1252_219"/>
<feBlend mode="normal" in="SourceGraphic" in2="effect1_dropShadow_1252_219" result="shape"/>
</filter>
</defs>
</svg>
