<svg width="13" height="12" viewBox="0 0 13 12" fill="none" xmlns="http://www.w3.org/2000/svg">
<g id="User 1" clip-path="url(#clip0_1236_341)">
<path id="Vector" d="M6.52344 5.67188C7.75313 5.67188 8.75 4.67501 8.75 3.44531C8.75 2.21562 7.75313 1.21875 6.52344 1.21875C5.29374 1.21875 4.29688 2.21562 4.29688 3.44531C4.29688 4.67501 5.29374 5.67188 6.52344 5.67188Z" stroke="#BBBDC3" stroke-miterlimit="10"/>
<path id="Vector_2" d="M1.15625 11.297V9.07046L3.26328 8.20796C3.57031 8.08374 3.90781 8.06031 4.22656 8.14468L6.02422 8.61577C6.33594 8.69781 6.66406 8.69781 6.97812 8.61577L8.77578 8.14468C9.09453 8.06031 9.43438 8.08374 9.73906 8.20796L11.8438 9.07046V11.297" stroke="#BBBDC3" stroke-miterlimit="10"/>
</g>
<defs>
<clipPath id="clip0_1236_341">
<rect width="12" height="12" fill="white" transform="translate(0.5)"/>
</clipPath>
</defs>
</svg>
